<svg width="100%" height="100%" id="svg" viewBox="0 0 1440 590" xmlns="http://www.w3.org/2000/svg" class="transition duration-300 ease-in-out delay-150"><defs><linearGradient id="gradient" x1="0%" y1="50%" x2="100%" y2="50%"><stop offset="5%" stop-color="#F78DA7"></stop><stop offset="95%" stop-color="#8ED1FC"></stop></linearGradient></defs><path d="M 0,600 L 0,337 C 107.8468899521531,366.3492822966507 215.6937799043062,395.69856459330146 322,379 C 428.3062200956938,362.30143540669854 533.0717703349283,299.555023923445 627,256 C 720.9282296650717,212.444976076555 804.0191387559809,188.0813397129187 880,165 C 955.9808612440191,141.9186602870813 1024.8516746411483,120.11961722488039 1117,99 C 1209.1483253588517,77.88038277511961 1324.5741626794259,57.44019138755981 1440,37 L 1440,600 L 0,600 Z" stroke="none" stroke-width="0" fill="url(#gradient)" fill-opacity="0.4" class="transition-all duration-300 ease-in-out delay-150 path-0"></path><defs><linearGradient id="gradient" x1="0%" y1="50%" x2="100%" y2="50%"><stop offset="5%" stop-color="#F78DA7"></stop><stop offset="95%" stop-color="#8ED1FC"></stop></linearGradient></defs><path d="M 0,600 L 0,487 C 94.8133971291866,460.52153110047846 189.6267942583732,434.04306220095697 285,438 C 380.3732057416268,441.95693779904303 476.3062200956938,476.3492822966507 561,462 C 645.6937799043062,447.6507177033493 719.1483253588518,384.5598086124402 831,352 C 942.8516746411482,319.4401913875598 1093.1004784688996,317.41148325358853 1201,295 C 1308.8995215311004,272.58851674641147 1374.4497607655503,229.79425837320574 1440,187 L 1440,600 L 0,600 Z" stroke="none" stroke-width="0" fill="url(#gradient)" fill-opacity="0.53" class="transition-all duration-300 ease-in-out delay-150 path-1"></path><defs><linearGradient id="gradient" x1="0%" y1="50%" x2="100%" y2="50%"><stop offset="5%" stop-color="#F78DA7"></stop><stop offset="95%" stop-color="#8ED1FC"></stop></linearGradient></defs><path d="M 0,600 L 0,637 C 73.70334928229664,615.6602870813397 147.40669856459328,594.3205741626795 241,596 C 334.5933014354067,597.6794258373205 448.07655502392345,622.3779904306219 570,613 C 691.9234449760766,603.6220095693781 822.287081339713,560.1674641148326 905,528 C 987.712918660287,495.83253588516743 1022.7751196172248,474.95215311004785 1104,445 C 1185.2248803827752,415.04784688995215 1312.6124401913876,376.02392344497605 1440,337 L 1440,600 L 0,600 Z" stroke="none" stroke-width="0" fill="url(#gradient)" fill-opacity="1" class="transition-all duration-300 ease-in-out delay-150 path-2"></path></svg>