<svg width="100%" height="100%" id="svg" viewBox="0 0 1440 590" xmlns="http://www.w3.org/2000/svg" class="transition duration-300 ease-in-out delay-150"><defs><linearGradient id="gradient" x1="0%" y1="50%" x2="100%" y2="50%"><stop offset="5%" stop-color="#F78DA7"></stop><stop offset="95%" stop-color="#8ED1FC"></stop></linearGradient></defs><path d="M 0,600 L 0,112 C 118.4114832535885,97.2153110047847 236.822966507177,82.43062200956938 336,99 C 435.177033492823,115.56937799043062 515.1196172248805,163.49282296650716 609,205 C 702.8803827751195,246.50717703349284 810.6985645933014,281.59808612440196 910,306 C 1009.3014354066986,330.40191387559804 1100.086124401914,344.11483253588517 1187,360 C 1273.913875598086,375.88516746411483 1356.9569377990429,393.9425837320574 1440,412 L 1440,600 L 0,600 Z" stroke="none" stroke-width="0" fill="url(#gradient)" fill-opacity="0.4" class="transition-all duration-300 ease-in-out delay-150 path-0" transform="rotate(-180 720 300)"></path><defs><linearGradient id="gradient" x1="0%" y1="50%" x2="100%" y2="50%"><stop offset="5%" stop-color="#F78DA7"></stop><stop offset="95%" stop-color="#8ED1FC"></stop></linearGradient></defs><path d="M 0,600 L 0,262 C 83.55980861244021,260.91866028708137 167.11961722488041,259.8373205741627 265,263 C 362.8803827751196,266.1626794258373 475.08133971291875,273.5693779904306 576,315 C 676.9186602870813,356.4306220095694 766.5550239234449,431.8851674641149 862,459 C 957.4449760765551,486.1148325358851 1058.6985645933016,464.8899521531101 1156,474 C 1253.3014354066984,483.1100478468899 1346.650717703349,522.555023923445 1440,562 L 1440,600 L 0,600 Z" stroke="none" stroke-width="0" fill="url(#gradient)" fill-opacity="0.53" class="transition-all duration-300 ease-in-out delay-150 path-1" transform="rotate(-180 720 300)"></path><defs><linearGradient id="gradient" x1="0%" y1="50%" x2="100%" y2="50%"><stop offset="5%" stop-color="#F78DA7"></stop><stop offset="95%" stop-color="#8ED1FC"></stop></linearGradient></defs><path d="M 0,600 L 0,412 C 75.61722488038276,387.86602870813397 151.23444976076553,363.732057416268 246,378 C 340.76555023923447,392.267942583732 454.67942583732054,444.9377990430622 551,477 C 647.3205741626795,509.0622009569378 726.0478468899521,520.5167464114833 817,536 C 907.9521531100479,551.4832535885167 1011.129186602871,570.9952153110048 1117,601 C 1222.870813397129,631.0047846889952 1331.4354066985645,671.5023923444976 1440,712 L 1440,600 L 0,600 Z" stroke="none" stroke-width="0" fill="url(#gradient)" fill-opacity="1" class="transition-all duration-300 ease-in-out delay-150 path-2" transform="rotate(-180 720 300)"></path></svg>